<?xml version="1.0" encoding="UTF-8"?>
<svg width="512px" height="98px" viewBox="0 0 512 98" version="1.1" xmlns="http://www.w3.org/2000/svg" xmlns:xlink="http://www.w3.org/1999/xlink">
    <!-- Generator: Sketch 47.1 (45422) - http://www.bohemiancoding.com/sketch -->
    <title>Text Logo Red</title>
    <desc>Created with Sketch.</desc>
    <defs></defs>
    <g id="Page-1" stroke="none" stroke-width="1" fill="none" fill-rule="evenodd">
        <g id="Text-Logo-Red" fill="#DF6436">
            <path d="M0,1 L60.3587533,1 C66.1953308,1 71.1777751,5.69773315 71.1777751,11.8190218 L71.1777751,55.8068868 C71.1777751,61.6434644 66.1953308,66.6259086 60.3587533,66.6259086 L59.6469755,66.6259086 L71.4624862,97.0899963 L47.2620426,97.0899963 L35.3041764,66.6259086 L24.7698657,66.6259086 L24.7698657,97.0899963 L0,97.0899963 L0,1 Z M46.5502649,45.9843538 L46.5502649,23.0651103 C46.5502649,22.3533325 45.8384871,21.6415548 45.2690649,21.6415548 L24.7698657,21.6415548 L24.7698657,47.2655538 L45.2690649,47.2655538 C45.8384871,47.2655538 46.5502649,46.553776 46.5502649,45.9843538 Z M87.7621967,97.0899963 L150.540994,97.0899963 L150.540994,76.306086 L112.389707,76.306086 L112.389707,58.9387089 L145.416194,58.9387089 L145.416194,38.4395097 L112.389707,38.4395097 L112.389707,21.6415548 L150.540994,21.6415548 L150.540994,1 L87.7621967,1 L87.7621967,97.0899963 Z M236.025502,12.2460885 L236.025502,97.0899963 L211.255636,97.0899963 L211.255636,73.1742639 L189.475237,73.1742639 L189.475237,97.0899963 L164.705372,97.0899963 L164.705372,12.2460885 C164.705372,5.5553776 169.260749,1 175.95146,1 L224.779414,1 C231.470125,1 236.025502,5.5553776 236.025502,12.2460885 Z M189.475237,52.3903536 L211.255636,52.3903536 L211.255636,23.4921769 C211.255636,21.7839103 209.832081,20.6450659 207.839103,20.6450659 L192.464704,20.6450659 C190.756437,20.6450659 189.475237,21.9262659 189.475237,23.4921769 L189.475237,52.3903536 Z M253.606413,1 L305.281477,1 C315.815788,1 324.784188,9.68368856 324.784188,20.5027104 L324.784188,77.4449304 C324.784188,88.4063078 315.815788,97.0899963 305.281477,97.0899963 L253.606413,97.0899963 L253.606413,1 Z M300.156677,69.3306641 L300.156677,28.6169767 C300.156677,24.4886658 297.309566,21.6415548 293.181255,21.6415548 L278.376278,21.6415548 L278.376278,76.306086 L293.181255,76.306086 C297.309566,76.306086 300.156677,73.458975 300.156677,69.3306641 Z M381.512874,79.8649748 L391.193052,79.8649748 L407.421584,41.7136873 L407.421584,97.0899963 L430.767895,97.0899963 L430.767895,1 L404.574473,1 L386.78003,45.8419983 L367.419675,1 L342.365098,1 L342.365098,97.0899963 L365.141986,97.0899963 L365.141986,42.7101762 L381.512874,79.8649748 Z M449.202938,97.0899963 L511.981736,97.0899963 L511.981736,76.306086 L473.830449,76.306086 L473.830449,58.9387089 L506.856936,58.9387089 L506.856936,38.4395097 L473.830449,38.4395097 L473.830449,21.6415548 L511.981736,21.6415548 L511.981736,1 L449.202938,1 L449.202938,97.0899963 Z" id="README" transform="translate(255.990868, 49.044998) scale(-1, 1) translate(-255.990868, -49.044998) "></path>
        </g>
    </g>
</svg>