<?xml version="1.0" encoding="UTF-8"?>
<svg width="512px" height="256px" viewBox="0 0 512 256" version="1.1" xmlns="http://www.w3.org/2000/svg" xmlns:xlink="http://www.w3.org/1999/xlink">
    <!-- Generator: Sketch 47.1 (45422) - http://www.bohemiancoding.com/sketch -->
    <title>Text Logo THE CONFERENCE</title>
    <desc>Created with Sketch.</desc>
    <defs></defs>
    <g id="Page-1" stroke="none" stroke-width="1" fill="none" fill-rule="evenodd">
        <g id="Group" transform="translate(256.000000, 128.500000) scale(-1, 1) translate(-256.000000, -128.500000) translate(40.000000, 88.000000)">
            <polygon id="README" fill="#63B478" points="378.66 81 431.58 81 431.58 63.48 399.42 63.48 399.42 48.84 427.26 48.84 427.26 31.56 399.42 31.56 399.42 17.4 431.58 17.4 431.58 0 378.66 0"></polygon>
            <polygon id="Path" fill="#E9BD50" points="321.6 66.48 329.76 66.48 343.44 34.32 343.44 81 363.12 81 363.12 0 341.04 0 326.04 37.8 309.72 0 288.6 0 288.6 81 307.8 81 307.8 35.16"></polygon>
            <path d="M213.78,0 L257.34,0 C266.22,0 273.78,7.32 273.78,16.44 L273.78,64.44 C273.78,73.68 266.22,81 257.34,81 L213.78,81 L213.78,0 Z M253.02,57.6 L253.02,23.28 C253.02,19.8 250.62,17.4 247.14,17.4 L234.66,17.4 L234.66,63.48 L247.14,63.48 C250.62,63.48 253.02,61.08 253.02,57.6 Z" id="Combined-Shape" fill="#D5513A"></path>
            <path d="M198.96,9.48 L198.96,81 L178.08,81 L178.08,60.84 L159.72,60.84 L159.72,81 L138.84,81 L138.84,9.48 C138.84,3.84 142.68,0 148.32,0 L189.48,0 C195.12,0 198.96,3.84 198.96,9.48 Z M159.72,43.32 L178.08,43.32 L178.08,18.96 C178.08,17.52 176.88,16.56 175.2,16.56 L162.24,16.56 C160.8,16.56 159.72,17.64 159.72,18.96 L159.72,43.32 Z" id="Combined-Shape" fill="#BB2D45"></path>
            <polygon id="Path" fill="#782284" points="73.98 81 126.9 81 126.9 63.48 94.74 63.48 94.74 48.84 122.58 48.84 122.58 31.56 94.74 31.56 94.74 17.4 126.9 17.4 126.9 0 73.98 0"></polygon>
            <path d="M0,0 L50.88,0 C55.8,0 60,3.96 60,9.12 L60,46.2 C60,51.12 55.8,55.32 50.88,55.32 L50.28,55.32 L60.24,81 L39.84,81 L29.76,55.32 L20.88,55.32 L20.88,81 L0,81 L0,0 Z M39.24,37.92 L39.24,18.6 C39.24,18 38.64,17.4 38.16,17.4 L20.88,17.4 L20.88,39 L38.16,39 C38.64,39 39.24,38.4 39.24,37.92 Z" id="Combined-Shape" fill="#4FAEEE"></path>
        </g>
        <g id="Text-Logo-THE-CONFERENCE"></g>
    </g>
</svg>